
<svg width="19" height="11" viewBox="0 0 19 11" fill="none" xmlns="http://www.w3.org/2000/svg">
<path fill-rule="evenodd" clip-rule="evenodd" d="M0.7 0C0.313404 0 0 0.268632 0 0.6C0 0.931368 0.313404 1.2 0.7 1.2H17.5C17.8865 1.2 18.2 0.931368 18.2 0.6C18.2 0.268632 17.8865 0 17.5 0H0.7ZM0 5.4C0 5.06863 0.313404 4.8 0.7 4.8H17.5C17.8865 4.8 18.2 5.06863 18.2 5.4C18.2 5.73137 17.8865 6 17.5 6H0.7C0.313404 6 0 5.73137 0 5.4ZM0 10.2C0 9.86868 0.313404 9.6 0.7 9.6H17.5C17.8865 9.6 18.2 9.86868 18.2 10.2C18.2 10.5313 17.8865 10.8 17.5 10.8H0.7C0.313404 10.8 0 10.5313 0 10.2Z" fill="white" fill-opacity="0.8"/>
</svg>
