
<svg width="45" height="45" viewBox="0 0 45 45" fill="none" xmlns="http://www.w3.org/2000/svg">
<g opacity="0.2">
<path d="M9.4421 20.6474L18.7276 23.7425C19.6587 24.0529 20.1242 24.2081 20.4581 24.5419C20.7919 24.8758 20.9471 25.3413 21.2575 26.2724L24.3526 35.5579C25.137 37.9111 25.5292 39.0877 26.25 39.0877C26.9708 39.0877 27.363 37.9111 28.1474 35.5579L36.2351 11.2947C36.787 9.63894 37.063 8.81105 36.626 8.37403C36.189 7.93702 35.3611 8.21298 33.7053 8.76491L9.4421 16.8526C7.08889 17.637 5.91228 18.0292 5.91228 18.75C5.91228 19.4708 7.08888 19.863 9.4421 20.6474Z" fill="#DADADA"/>
<path d="M9.4421 20.6474L18.7276 23.7425C19.6587 24.0529 20.1242 24.2081 20.4581 24.5419C20.7919 24.8758 20.9471 25.3413 21.2575 26.2724L24.3526 35.5579C25.137 37.9111 25.5292 39.0877 26.25 39.0877C26.9708 39.0877 27.363 37.9111 28.1474 35.5579L36.2351 11.2947C36.787 9.63894 37.063 8.81105 36.626 8.37403C36.1889 7.93702 35.3611 8.21298 33.7053 8.76491L9.4421 16.8526C7.08889 17.637 5.91228 18.0292 5.91228 18.75C5.91228 19.4708 7.08888 19.863 9.44209 20.6474L9.4421 20.6474Z" fill="#DADADA"/>
<path d="M18.2757 26.0919L13.589 24.5297C13.2962 24.4321 12.9748 24.4751 12.7181 24.6463L9.00471 27.1219C8.42684 27.5071 8.58067 28.3952 9.25445 28.5636L14.709 29.9272C14.8881 29.972 15.028 30.1119 15.0728 30.291L16.4364 35.7456C16.6048 36.4193 17.4929 36.5732 17.8781 35.9953L20.3537 32.2819C20.5249 32.0252 20.5679 31.7038 20.4703 31.411L18.9081 26.7243C18.8086 26.4257 18.5743 26.1914 18.2757 26.0919Z" fill="#BEBEBE"/>
</g>
</svg>
